<mxfile host="app.diagrams.net" modified="2024-02-27T17:35:15.156Z" agent="Mozilla/5.0 (Macintosh; Intel Mac OS X 10.15; rv:123.0) Gecko/20100101 Firefox/123.0" version="23.1.1" etag="EgYmiRpyGHYxnNm-vhY6" type="github">
  <diagram name="Page-1" id="PudWm2hmolwXWIwVha-l">
    <mxGraphModel>
      <root>
        <mxCell id="0" />
        <mxCell id="1" parent="0" />
      </root>
    </mxGraphModel>
  </diagram>
</mxfile>
